<?xml version="1.0" standalone="no"?>
<!DOCTYPE svg PUBLIC "-//W3C//DTD SVG 20010904//EN"
 "http://www.w3.org/TR/2001/REC-SVG-20010904/DTD/svg10.dtd">
<svg version="1.0" xmlns="http://www.w3.org/2000/svg"
 width="512.000000pt" height="512.000000pt" viewBox="0 0 512.000000 512.000000"
 preserveAspectRatio="xMidYMid meet">
<metadata>
Created by potrace 1.11, written by Peter Selinger 2001-2013
</metadata>
<g transform="translate(0.000000,512.000000) scale(0.100000,-0.100000)"
fill="#000000" stroke="none">
<path d="M2660 4889 c0 -6 -4 -7 -10 -4 -9 6 -14 -8 -7 -20 1 -2 -7 -11 -18
-19 -11 -9 -16 -16 -11 -16 4 0 -2 -9 -15 -21 -13 -11 -17 -17 -9 -13 13 7 13
5 1 -9 -7 -9 -18 -14 -24 -10 -5 3 -7 1 -3 -5 3 -5 -12 -29 -35 -53 -22 -23
-48 -53 -56 -66 -8 -12 -18 -21 -22 -18 -4 2 -13 -5 -21 -15 -8 -10 -17 -17
-22 -14 -4 3 -8 -2 -8 -11 0 -9 -5 -13 -10 -10 -6 3 -13 -1 -16 -9 -3 -9 -12
-16 -20 -16 -7 0 -18 -9 -24 -20 -6 -11 -15 -18 -19 -15 -5 2 -19 -4 -31 -15
-13 -11 -29 -20 -37 -20 -7 0 -13 -4 -13 -9 0 -7 -24 -18 -46 -20 -2 0 -12 -7
-20 -16 -9 -8 -20 -13 -25 -10 -5 4 -9 1 -9 -4 0 -6 -3 -10 -7 -9 -5 1 -17 -3
-28 -9 -20 -11 -27 -13 -46 -13 -5 0 -8 -4 -5 -8 2 -4 -7 -8 -22 -7 -15 0 -37
-6 -49 -13 -13 -8 -23 -11 -23 -7 0 4 -6 2 -14 -4 -8 -6 -18 -11 -22 -10 -5 1
-11 1 -14 -1 -3 -1 -16 -3 -29 -6 -14 -2 -31 -10 -40 -17 -12 -9 -13 -9 -7 1
4 7 1 12 -9 12 -9 0 -13 -5 -9 -11 4 -7 -1 -7 -16 1 -13 7 -20 8 -16 2 3 -6 2
-13 -3 -16 -5 -4 -12 -2 -16 4 -4 6 -11 7 -17 4 -17 -11 -52 -10 -60 1 -5 6
-8 3 -8 -7 0 -10 -5 -18 -11 -18 -5 0 -7 5 -4 10 3 6 1 10 -4 10 -6 0 -11 -5
-11 -10 0 -7 -7 -8 -17 -3 -16 8 -38 9 -53 4 -20 -7 -107 -4 -102 3 3 5 -3 6
-13 3 -9 -4 -23 -3 -30 3 -9 8 -15 8 -20 0 -3 -6 -12 -7 -18 -3 -7 4 -17 8
-23 9 -6 1 -22 5 -34 9 -15 5 -20 4 -16 -4 5 -7 1 -9 -8 -5 -9 3 -16 10 -16
14 0 4 -12 7 -27 7 -16 0 -44 6 -63 14 -19 7 -38 12 -42 11 -5 -1 -8 3 -8 9 0
5 -4 8 -9 5 -5 -4 -11 -1 -13 4 -2 6 -13 12 -26 13 -12 0 -22 5 -22 10 0 4 -4
6 -9 2 -5 -3 -17 5 -25 17 -11 15 -16 18 -16 8 0 -10 -3 -11 -8 -4 -4 6 -17
14 -30 18 -12 4 -20 12 -17 17 3 5 -2 6 -11 2 -11 -4 -15 -2 -11 4 4 6 -2 13
-12 16 -14 3 -18 -1 -17 -17 1 -11 -3 -25 -9 -29 -7 -6 -7 -10 0 -13 6 -2 9
-20 8 -39 -2 -19 -4 -51 -6 -70 -1 -19 0 -35 4 -35 10 0 5 -74 -6 -83 -7 -6
-7 -10 0 -13 6 -2 9 -20 8 -39 -2 -19 -4 -51 -6 -70 -1 -19 0 -35 4 -35 10 0
5 -74 -6 -83 -7 -6 -7 -10 0 -13 6 -2 9 -20 8 -39 -2 -19 -4 -51 -6 -70 -1
-19 0 -35 4 -35 10 0 5 -74 -6 -83 -7 -6 -7 -10 0 -13 6 -2 9 -19 8 -37 -8
-94 -8 -107 -2 -107 7 0 2 -57 -6 -71 -4 -5 -2 -9 3 -9 12 0 9 -73 -3 -83 -7
-6 -7 -10 0 -13 6 -2 9 -20 8 -39 -2 -19 -4 -51 -6 -70 -1 -19 0 -35 4 -35 8
0 5 -32 -5 -48 -4 -6 -3 -12 2 -12 9 0 6 -70 -3 -79 -3 -2 0 -10 6 -18 9 -10
8 -13 -1 -13 -9 0 -10 -3 -1 -13 8 -10 7 -17 -1 -25 -8 -8 -8 -12 -1 -12 10 0
8 -68 -2 -79 -3 -2 0 -10 6 -18 9 -10 8 -13 0 -13 -7 0 -9 -5 -4 -12 11 -18
10 -52 -2 -61 -7 -6 -7 -10 0 -13 6 -2 9 -20 8 -39 -2 -19 -4 -51 -6 -70 -1
-19 0 -35 4 -35 10 0 5 -74 -6 -83 -7 -6 -7 -10 0 -13 6 -2 9 -21 8 -42 -2
-20 -4 -52 -6 -69 -1 -18 0 -33 4 -33 10 0 5 -74 -6 -83 -7 -6 -7 -10 0 -13
12 -5 11 -66 0 -85 -6 -8 -4 -10 4 -4 10 6 11 3 2 -14 -7 -11 -8 -21 -3 -21 9
0 6 -70 -3 -79 -3 -2 0 -10 6 -18 9 -10 8 -13 -1 -13 -9 0 -10 -3 -1 -13 8
-10 7 -17 -1 -25 -8 -8 -8 -12 -1 -12 10 0 8 -68 -2 -79 -3 -2 0 -10 6 -18 9
-10 8 -13 -2 -13 -10 0 -10 -3 -2 -11 8 -8 8 -20 3 -35 -5 -13 -6 -24 -2 -24
12 0 9 -73 -3 -83 -7 -6 -7 -10 0 -13 6 -2 9 -20 8 -39 -2 -19 -4 -51 -6 -70
-1 -19 1 -35 4 -35 7 0 2 -57 -6 -71 -4 -5 -2 -9 3 -9 11 0 10 -73 -1 -81 -5
-3 -1 -13 8 -23 10 -10 12 -16 4 -16 -8 0 -8 -5 2 -17 12 -15 12 -16 -1 -8
-12 7 -13 6 -4 -6 6 -8 10 -22 9 -31 -2 -10 1 -18 5 -18 5 0 7 -9 5 -20 -2
-11 1 -22 6 -25 5 -4 7 -10 4 -15 -3 -5 -1 -11 5 -15 6 -4 8 -11 5 -16 -4 -5
-1 -9 5 -9 7 0 9 -8 4 -22 -3 -13 -3 -20 1 -16 4 4 19 -16 33 -45 14 -29 32
-57 40 -63 8 -6 12 -16 8 -22 -4 -7 -2 -12 3 -12 6 0 20 -9 31 -20 11 -11 17
-20 14 -20 -4 0 7 -14 25 -30 17 -17 31 -36 31 -42 0 -9 3 -9 12 0 9 9 14 6
22 -11 6 -12 23 -27 36 -34 14 -7 24 -19 22 -25 -2 -7 0 -10 4 -6 4 4 13 3 21
-3 7 -6 13 -8 13 -3 0 5 7 -1 15 -13 9 -13 22 -20 30 -17 9 4 15 0 15 -10 0
-8 6 -13 13 -10 7 2 22 -3 33 -13 20 -18 35 -24 66 -27 10 -1 21 -6 25 -11 5
-4 2 -5 -6 0 -9 5 -12 4 -8 -3 4 -5 18 -9 32 -7 17 1 31 -5 40 -19 10 -13 15
-15 15 -6 0 11 3 11 12 2 7 -7 22 -12 35 -12 13 0 23 -5 23 -11 0 -5 4 -7 10
-4 5 3 19 1 31 -6 17 -9 20 -8 13 3 -6 9 -3 9 11 -2 10 -8 20 -14 22 -12 1 1
4 2 6 1 1 0 9 -2 17 -4 8 -2 24 -7 34 -11 14 -5 17 -4 11 5 -6 10 -2 10 16 0
13 -7 32 -12 42 -10 9 1 20 -5 23 -14 5 -12 9 -13 14 -5 5 8 13 9 21 4 8 -5
21 -7 31 -6 9 2 19 -2 22 -7 4 -6 13 -8 21 -4 8 3 15 1 15 -5 0 -6 11 -9 25
-8 15 2 22 -1 18 -7 -4 -6 0 -8 10 -4 9 3 19 2 22 -3 3 -5 14 -7 25 -5 11 2
19 -1 17 -8 -1 -7 4 -11 12 -9 7 1 19 -2 27 -9 7 -6 17 -8 22 -5 5 3 19 -4 30
-15 13 -11 22 -15 22 -8 0 7 9 4 22 -7 14 -13 19 -14 14 -4 -5 9 -2 8 7 -2 8
-10 17 -15 20 -11 4 3 7 1 7 -6 0 -7 6 -11 13 -8 6 2 18 -5 25 -17 13 -20 13
-20 8 -1 -6 19 -5 19 8 3 7 -10 18 -18 24 -18 6 0 16 -8 21 -17 6 -10 11 -14
11 -9 0 5 9 -1 20 -14 11 -13 20 -19 20 -15 0 4 8 -2 19 -13 10 -12 24 -22 31
-22 7 0 10 -3 7 -6 -7 -7 30 -44 45 -44 4 0 7 -3 5 -8 -1 -4 10 -21 26 -37 15
-16 27 -33 27 -38 0 -4 4 -6 9 -2 6 3 8 -4 6 -15 -2 -11 0 -18 5 -15 5 3 14
-5 21 -17 17 -33 17 -33 43 -5 15 16 20 28 13 31 -7 2 -4 5 6 5 15 1 22 12 18
34 -1 5 3 6 8 3 5 -3 17 7 26 22 20 30 64 72 77 72 4 0 8 7 8 17 0 9 3 14 6
10 3 -3 19 9 36 26 16 18 26 25 22 17 -7 -13 -5 -13 9 -1 9 7 14 18 10 24 -3
5 -1 7 4 4 6 -4 22 3 37 14 14 11 31 17 37 13 7 -4 9 -3 6 3 -4 6 13 18 38 28
24 10 42 22 39 26 -2 4 6 5 18 1 16 -4 19 -2 13 8 -5 9 -4 11 4 6 6 -4 18 -2
26 4 8 6 19 9 25 5 5 -3 10 -1 10 4 0 6 8 11 18 11 10 0 26 6 37 13 22 14 44
15 62 4 6 -4 15 -2 19 4 5 8 2 10 -7 5 -8 -4 -6 -1 5 8 14 12 24 13 39 5 11
-7 17 -7 13 -1 -6 9 29 26 48 23 5 -1 16 1 25 5 17 7 54 13 84 15 9 0 17 4 17
10 0 5 5 9 11 9 5 0 7 -4 4 -10 -3 -5 -1 -10 4 -10 6 0 11 5 11 11 0 6 7 9 15
5 21 -8 46 4 38 18 -4 6 2 4 12 -4 13 -10 16 -11 11 -2 -5 9 -3 13 5 11 28 -3
60 1 56 9 -3 4 7 8 21 8 37 2 55 7 69 21 7 6 23 9 35 6 19 -4 20 -3 8 6 -13 9
-12 11 6 11 11 0 26 6 33 12 11 11 12 10 6 0 -6 -12 -3 -12 16 -1 13 7 28 12
32 11 5 -1 6 2 3 7 -4 5 3 13 15 16 26 9 123 67 127 78 2 4 8 5 13 1 5 -3 9 2
9 10 0 8 5 18 12 22 7 5 8 2 3 -7 -5 -8 9 3 30 24 21 20 42 37 47 37 5 0 7 4
4 9 -3 5 11 23 31 40 20 17 33 31 28 31 -4 0 2 9 15 20 13 11 19 20 14 20 -5
0 -4 4 1 8 6 4 17 16 25 26 13 18 13 19 0 11 -9 -5 -8 0 4 13 11 12 15 22 11
22 -5 0 -1 6 10 13 10 8 15 19 11 25 -4 7 -2 12 4 12 6 0 9 4 5 9 -3 5 0 13 6
16 5 4 8 13 5 21 -3 8 -1 14 4 14 6 0 10 12 10 26 0 16 4 23 11 18 8 -4 8 0 0
15 -7 12 -8 21 -2 21 5 0 8 8 6 18 -1 9 2 23 8 29 6 9 6 13 -2 13 -8 0 -9 6
-2 18 6 11 6 24 0 35 -6 9 -6 17 -2 17 11 0 10 140 0 157 -4 6 -3 14 2 18 10
5 7 36 -4 55 -3 6 -2 10 2 10 11 0 11 111 0 128 -5 6 -4 12 1 12 5 0 8 10 7
23 -1 12 2 28 8 35 7 9 6 11 -4 7 -10 -4 -15 1 -15 15 0 11 3 20 6 20 9 0 6
143 -3 157 -4 6 -3 14 2 18 10 5 7 36 -4 55 -3 6 -2 10 2 10 11 0 11 111 0
128 -5 6 -4 12 1 12 5 0 8 10 7 23 -1 12 2 28 8 35 7 9 6 11 -4 7 -10 -4 -15
1 -15 15 0 11 3 20 6 20 11 0 6 64 -5 72 -7 5 -6 8 0 8 13 0 14 109 2 128 -5
6 -4 12 1 12 5 0 8 10 7 23 -1 12 2 28 8 35 7 9 6 11 -4 7 -10 -4 -15 1 -15
15 0 11 3 20 6 20 9 0 6 143 -3 157 -4 6 -3 14 2 18 10 5 7 36 -4 55 -3 6 -2
10 2 10 11 0 11 111 0 128 -5 6 -4 12 1 12 5 0 8 10 7 23 -1 12 2 28 8 35 7 9
6 11 -4 7 -10 -4 -15 1 -15 15 0 11 3 20 6 20 9 0 6 143 -3 157 -4 6 -3 14 2
18 10 5 7 36 -4 55 -3 6 -2 10 2 10 11 0 11 111 0 128 -5 6 -4 12 1 12 5 0 8
10 7 23 -1 12 2 28 8 35 7 9 6 11 -4 7 -10 -4 -15 1 -15 15 0 11 3 20 6 20 11
0 6 64 -5 72 -7 5 -6 8 0 8 13 0 14 109 2 128 -5 6 -4 12 1 12 5 0 8 10 7 23
-1 12 2 28 8 35 7 9 6 11 -4 7 -10 -4 -15 1 -15 15 0 11 3 20 6 20 9 0 6 143
-3 157 -4 6 -3 14 2 18 10 5 7 36 -4 55 -3 6 -2 10 2 10 11 0 10 111 -1 129
-6 9 -5 12 1 8 5 -3 10 0 10 8 0 8 -4 12 -9 9 -4 -3 -8 3 -9 13 0 16 -1 16
-10 -2 -6 -12 -19 -27 -31 -34 -11 -7 -17 -8 -14 -2 4 7 1 8 -8 5 -9 -3 -14
-9 -12 -13 3 -4 -4 -13 -16 -20 -16 -10 -19 -10 -12 1 4 7 -2 5 -13 -4 -11
-10 -25 -18 -31 -18 -7 0 -12 -4 -12 -9 0 -6 -9 -8 -20 -6 -11 2 -18 0 -15 -6
4 -5 -8 -9 -24 -9 -17 0 -31 -5 -31 -12 0 -6 -3 -8 -7 -5 -3 4 -17 0 -31 -9
-15 -10 -21 -11 -17 -3 6 8 4 10 -6 3 -18 -11 -38 -16 -66 -15 -15 1 -23 -5
-23 -17 0 -9 -3 -13 -8 -7 -8 11 -62 15 -62 4 0 -10 -34 -6 -42 6 -4 6 -8 2
-8 -7 0 -10 -5 -18 -11 -18 -5 0 -8 4 -5 8 6 10 -56 8 -73 -2 -6 -4 -11 -3
-11 2 0 10 -30 9 -48 -2 -7 -4 -12 -2 -12 6 0 9 -3 9 -10 -2 -5 -8 -10 -10
-10 -4 0 5 -20 9 -45 9 -25 -1 -45 3 -45 8 0 5 -7 4 -15 -3 -10 -8 -15 -9 -15
-2 0 7 -7 9 -17 5 -9 -4 -14 -2 -11 3 3 5 -19 10 -50 12 -32 1 -62 8 -72 17
-13 11 -19 12 -28 3 -9 -9 -12 -9 -12 0 0 7 -11 12 -24 12 -14 0 -28 5 -31 10
-4 6 -10 8 -14 6 -4 -3 -24 4 -44 14 -21 11 -38 20 -39 19 -2 0 -16 5 -33 12
-16 7 -33 12 -37 11 -5 -1 -8 3 -8 9 0 5 -4 7 -10 4 -5 -3 -10 -1 -10 4 0 6
-5 11 -12 11 -6 0 -23 10 -36 23 -14 12 -22 16 -18 10 12 -21 -5 -15 -25 9
-11 11 -19 18 -19 14 0 -4 -12 5 -27 19 -15 14 -31 26 -35 26 -5 1 -12 2 -17
3 -5 0 -13 5 -18 10 -5 5 -2 6 7 2 8 -4 4 1 -9 11 -13 10 -33 28 -46 41 -12
12 -29 22 -36 22 -12 0 -12 2 -1 9 11 6 10 10 -5 16 -10 5 -21 7 -25 7 -5 -1
-7 1 -6 6 3 14 -14 42 -23 36 -5 -3 -9 1 -9 9 0 7 -10 24 -22 37 -13 14 -22
28 -20 32 1 5 -2 8 -6 8 -9 0 -37 50 -34 62 1 3 -5 9 -13 12 -8 3 -15 1 -15
-5z m261 -609 c14 8 19 7 19 -2 0 -8 3 -9 8 -3 10 15 62 16 62 2 0 -7 4 -6 10
3 7 11 10 11 10 2 0 -8 5 -10 13 -6 9 5 9 4 1 -5 -6 -7 -18 -14 -25 -15 -29
-6 -49 -18 -43 -27 3 -5 2 -9 -3 -10 -28 -2 -44 -10 -64 -28 -12 -11 -31 -23
-41 -27 -10 -3 -16 -10 -12 -15 3 -6 -9 -9 -30 -7 -21 1 -38 8 -41 17 -5 14
-7 14 -15 1 -6 -10 -10 -11 -10 -3 0 7 -7 10 -15 7 -8 -4 -15 -13 -15 -21 0
-8 5 -11 10 -8 6 3 10 1 10 -5 0 -6 5 -8 10 -5 6 3 10 1 10 -5 0 -6 5 -8 10
-5 6 3 10 2 10 -3 0 -5 10 -13 23 -17 12 -4 25 -8 30 -10 4 -1 12 -3 18 -4 5
0 7 -6 3 -13 -5 -8 -2 -9 9 -5 10 3 17 3 17 -1 0 -4 9 -13 21 -20 17 -11 20
-11 13 0 -5 9 -2 8 11 -2 14 -11 19 -12 22 -2 3 6 9 10 14 7 5 -4 6 1 3 10 -4
9 -9 14 -11 11 -3 -3 -13 3 -22 12 -10 11 -12 12 -6 2 8 -13 8 -13 -6 -3 -9 7
-19 10 -23 6 -4 -4 -4 1 0 11 5 14 4 17 -4 12 -19 -12 -14 -1 10 20 12 10 18
13 13 5 -5 -10 -4 -12 3 -7 7 4 12 14 12 22 0 8 3 13 8 10 4 -2 24 10 44 27
19 18 45 38 56 46 12 8 19 17 17 21 -2 3 7 6 20 6 13 0 21 -4 19 -8 -3 -5 2
-16 11 -25 12 -11 13 -18 5 -23 -8 -5 -6 -9 5 -14 10 -3 15 -12 11 -21 -3 -8
-1 -15 4 -15 5 0 7 -9 5 -20 -2 -11 0 -20 4 -20 4 0 6 -13 5 -30 -1 -16 1 -30
5 -30 4 0 7 -18 7 -41 -1 -22 2 -43 6 -45 4 -3 5 -10 2 -17 -2 -7 -6 -46 -9
-87 -2 -41 -4 -77 -5 -80 -2 -3 -2 -8 -1 -12 0 -5 -3 -8 -7 -8 -7 0 -11 -18
-12 -63 -1 -10 -6 -15 -12 -11 -7 5 -9 1 -5 -9 3 -9 2 -19 -4 -23 -6 -3 -8
-13 -5 -21 4 -9 2 -11 -6 -7 -7 5 -9 2 -6 -8 4 -8 -2 -21 -12 -28 -10 -7 -16
-19 -14 -25 3 -7 -2 -15 -11 -19 -9 -3 -13 -10 -10 -16 3 -5 1 -10 -4 -10 -6
0 -11 -6 -11 -14 0 -8 -7 -17 -16 -20 -9 -4 -14 -13 -10 -21 3 -8 2 -14 -2
-12 -4 1 -32 -24 -63 -56 -30 -31 -60 -57 -66 -57 -6 0 -13 -7 -17 -15 -3 -8
-11 -14 -18 -13 -7 2 -12 -3 -10 -10 1 -8 -2 -11 -9 -6 -6 3 -14 2 -18 -3 -10
-15 -83 -54 -75 -41 4 7 -2 5 -13 -4 -11 -10 -27 -18 -36 -18 -9 0 -17 -5 -17
-12 0 -6 -3 -8 -7 -5 -3 4 -13 1 -21 -6 -13 -10 -14 -9 -7 3 8 13 6 13 -8 2
-9 -8 -21 -11 -27 -7 -5 3 -10 2 -10 -4 0 -6 -7 -7 -17 -4 -12 5 -14 3 -8 -7
6 -10 4 -12 -8 -7 -9 3 -30 2 -46 -3 -22 -6 -31 -5 -31 3 0 7 -5 4 -11 -6 -8
-14 -14 -15 -31 -6 -15 8 -19 8 -14 0 4 -6 2 -11 -3 -11 -6 0 -11 6 -11 13 0
7 -3 8 -8 2 -11 -15 -55 -18 -46 -2 6 9 5 9 -7 0 -17 -14 -28 -14 -53 -1 -13
7 -16 7 -12 -1 4 -6 1 -11 -6 -10 -19 1 -55 17 -40 18 7 1 10 6 7 11 -3 6 -2
10 3 10 5 0 8 12 6 26 -2 17 2 24 10 21 9 -4 13 4 12 21 0 17 4 26 13 24 7 -1
11 3 9 10 -3 7 2 19 11 26 11 9 11 11 2 6 -9 -4 -6 6 8 24 12 18 19 32 14 32
-4 0 -1 6 7 13 8 7 21 23 28 36 11 19 11 22 0 15 -10 -6 -11 -5 -1 8 7 8 9 19
5 23 -4 5 -1 5 6 1 6 -4 12 -2 12 4 0 6 4 9 9 6 5 -4 7 3 4 14 -3 12 0 20 7
20 7 0 10 7 6 15 -3 8 0 14 7 12 7 -1 11 6 9 17 -2 12 1 16 9 10 9 -5 10 -2 6
10 -4 10 -3 15 3 11 5 -3 12 5 16 19 3 13 12 27 21 30 8 3 12 10 9 15 -3 5 1
11 9 15 8 3 15 1 15 -4 0 -5 6 -7 14 -4 8 3 25 -5 37 -17 18 -18 21 -19 16 -4
-6 15 -5 16 7 6 12 -10 15 -9 13 8 0 11 -5 17 -9 15 -4 -3 -8 -1 -8 4 0 13
-56 33 -66 24 -4 -4 -3 -1 1 7 6 11 4 13 -9 8 -10 -4 -15 -3 -11 3 3 6 3 10
-2 11 -26 2 -47 9 -52 16 -3 4 -20 15 -37 24 l-30 16 -2 -29 c-2 -18 2 -27 8
-23 5 3 19 -3 31 -14 12 -11 26 -18 30 -15 4 2 11 -1 15 -7 4 -7 3 -10 -2 -6
-5 3 -20 -11 -33 -30 -12 -19 -17 -32 -9 -28 7 3 4 -1 -7 -10 -11 -9 -19 -23
-17 -32 2 -10 -1 -12 -9 -7 -9 5 -10 2 -6 -9 3 -9 -1 -18 -10 -21 -9 -4 -13
-9 -9 -13 3 -3 -2 -15 -11 -26 -13 -15 -14 -19 -3 -13 12 6 12 5 -1 -6 -9 -7
-14 -19 -11 -27 3 -8 0 -11 -7 -7 -7 5 -11 -2 -11 -19 0 -16 -4 -24 -11 -19
-7 4 -9 -2 -7 -17 2 -18 -2 -24 -14 -23 -11 1 -15 -3 -11 -10 11 -17 12 -37 2
-30 -8 5 -13 -9 -10 -28 0 -5 -3 -8 -8 -8 -10 0 -24 -38 -22 -57 1 -7 -5 -13
-14 -13 -8 0 -15 -4 -15 -10 0 -5 8 -10 17 -10 21 0 12 -9 -14 -14 -19 -4 -23
5 -27 62 0 12 -4 22 -7 22 -4 0 -9 9 -12 20 -3 11 -2 18 2 15 4 -2 8 2 8 10 0
8 -5 11 -10 8 -5 -3 -7 0 -5 8 3 8 1 22 -4 33 -8 14 -7 17 3 11 8 -6 10 -4 4
6 -13 20 -14 79 -1 79 7 0 7 3 1 8 -12 8 -13 32 -2 50 5 7 3 12 -4 12 -7 0 -8
4 -2 13 5 6 8 22 7 35 0 12 3 22 8 22 5 0 6 4 3 10 -3 5 -1 19 5 30 8 15 8 20
-2 20 -9 0 -10 3 -2 8 6 4 10 15 9 24 -2 10 2 16 8 15 6 -1 11 10 11 25 -1 15
2 25 6 23 4 -3 11 11 14 31 4 19 14 38 22 41 7 3 14 16 14 29 0 13 5 24 10 24
6 0 10 7 10 15 0 8 5 15 10 15 6 0 10 7 10 15 0 8 5 15 12 15 6 0 9 3 6 6 -3
3 7 19 23 36 15 17 26 35 23 40 -3 4 2 5 10 2 9 -3 17 2 20 14 4 11 14 26 24
34 16 12 16 11 3 -7 -8 -11 0 -5 16 12 17 18 33 30 37 26 3 -3 6 -1 6 6 0 7 5
9 10 6 6 -3 10 1 10 10 0 9 4 14 9 10 5 -3 12 -1 16 5 4 6 11 8 16 5 5 -4 9
-1 9 4 0 6 7 11 15 11 8 0 15 5 15 11 0 5 4 8 9 5 4 -3 16 1 27 8 10 8 25 11
33 8 9 -3 12 -1 7 6 -4 6 1 11 11 11 39 1 53 5 53 13 0 4 5 8 11 8 5 0 7 -6 3
-12 -5 -8 -1 -7 10 2 10 8 31 13 47 12 16 -1 29 2 29 7 0 5 11 8 24 7 14 -2
30 1 38 5 7 5 14 4 16 -1 2 -6 11 -6 23 0z m-1046 -200 c-3 -5 -1 -10 5 -10 6
0 9 -4 5 -9 -3 -5 0 -13 6 -16 5 -4 8 -13 5 -21 -3 -8 0 -14 6 -14 6 0 8 -3 5
-7 -4 -3 -2 -12 4 -20 6 -7 8 -13 3 -13 -4 0 1 -7 12 -16 10 -8 13 -12 5 -8
-8 4 -12 3 -8 -3 3 -5 33 -9 67 -7 39 1 60 -2 60 -10 0 -6 5 -3 11 7 6 9 14
15 20 12 19 -13 8 -36 -26 -52 -19 -9 -38 -25 -41 -36 -3 -10 -8 -16 -11 -13
-3 3 -14 -4 -24 -16 -20 -23 -24 -32 -10 -24 5 3 11 -3 14 -14 3 -13 1 -18 -6
-13 -7 4 -6 0 1 -10 8 -9 11 -21 7 -27 -3 -5 -1 -10 5 -10 7 0 10 -7 7 -15 -4
-8 -1 -17 5 -21 7 -5 8 -2 3 6 -5 8 -4 11 3 7 5 -4 9 -15 7 -25 -2 -9 -4 -21
-5 -27 0 -5 -9 0 -19 13 -11 12 -24 22 -30 22 -6 0 -11 5 -11 10 0 6 -6 10
-14 10 -8 0 -17 7 -20 16 -4 9 -9 14 -12 11 -4 -3 -13 0 -21 8 -11 12 -18 12
-33 3 -10 -7 -16 -16 -13 -22 3 -5 1 -6 -4 -3 -6 4 -22 -4 -36 -17 -14 -13
-28 -21 -31 -18 -3 3 -6 0 -6 -7 0 -7 -4 -10 -9 -7 -5 4 -11 1 -13 -6 -3 -7
-7 -2 -10 10 -4 12 -2 20 3 16 8 -4 9 -1 9 21 0 3 6 20 14 39 8 19 12 37 8 40
-3 3 0 6 5 6 13 0 11 25 -2 37 -4 4 -5 2 0 -6 5 -9 4 -12 -3 -7 -7 4 -12 14
-12 22 0 8 -6 13 -12 12 -7 -2 -12 3 -10 10 1 8 -2 11 -6 8 -5 -3 -20 4 -34
17 -13 12 -27 23 -31 25 -10 3 -9 17 2 17 5 0 12 3 16 7 11 10 36 -3 28 -15
-4 -6 -1 -7 8 -1 8 5 32 10 54 10 56 3 55 2 55 25 0 11 4 17 10 14 5 -3 7 0 4
9 -3 8 2 26 11 40 10 14 14 26 11 26 -4 0 -2 9 4 20 6 11 13 20 16 20 3 0 2
-4 -1 -10z m1587 -23 c1 -15 7 -28 14 -31 6 -2 10 -18 9 -35 -1 -16 2 -28 6
-25 4 2 11 -5 14 -17 5 -15 10 -18 15 -9 5 8 9 7 14 -5 3 -10 11 -13 18 -8 18
11 128 12 128 0 0 -5 -7 -6 -16 -3 -11 4 -15 2 -11 -7 6 -15 -29 -41 -43 -32
-6 3 -7 -1 -4 -9 4 -10 1 -16 -8 -16 -40 0 -62 -85 -30 -118 7 -8 10 -17 7
-22 -3 -5 -1 -12 5 -15 8 -5 7 -11 -1 -21 -10 -12 -8 -13 7 -8 21 8 19 6 -11
-16 -11 -8 -17 -11 -13 -6 8 9 -35 56 -51 56 -6 0 -14 7 -19 16 -5 8 -15 16
-23 17 -8 2 -19 6 -25 10 -7 4 -14 0 -18 -8 -3 -8 -10 -15 -16 -15 -11 0 -26
-11 -62 -45 -11 -11 -18 -15 -15 -9 3 6 0 11 -7 11 -9 0 -12 -7 -9 -16 5 -13
3 -13 -7 -4 -10 9 -9 19 9 48 11 20 17 33 11 30 -5 -3 -10 -1 -10 4 0 6 5 11
11 11 7 0 9 10 7 25 -3 13 -1 22 3 19 5 -3 9 2 9 11 0 8 -18 28 -40 43 -21 15
-40 34 -40 42 -1 10 -3 11 -7 3 -3 -10 -8 -10 -19 1 -21 21 -18 42 3 25 11
-10 14 -10 9 -1 -9 15 18 16 46 1 13 -7 18 -7 14 -1 -4 6 5 11 21 11 67 2 68
3 64 43 -1 9 3 19 9 23 5 3 10 15 10 26 0 10 5 19 12 19 6 0 9 3 5 6 -5 6 15
35 20 30 2 -2 4 -15 5 -29z m591 -13 c-3 -8 0 -14 7 -14 7 0 10 -8 7 -19 -3
-12 1 -22 9 -25 8 -3 14 -9 13 -13 -4 -21 2 -33 13 -27 8 5 9 2 5 -10 -5 -12
-3 -15 6 -9 6 4 23 9 35 11 17 2 22 -1 16 -10 -4 -7 1 -5 12 4 12 11 25 14 33
9 7 -5 21 -6 31 -4 12 3 18 0 16 -9 -3 -20 -17 -39 -25 -34 -4 3 -22 -8 -40
-24 -18 -17 -37 -30 -43 -30 -6 0 -8 -3 -5 -6 3 -4 2 -15 -4 -25 -7 -13 -6
-19 1 -19 6 0 8 -4 5 -10 -3 -5 -2 -10 3 -10 5 0 8 -10 8 -22 -1 -13 2 -29 7
-36 6 -7 11 -24 13 -38 2 -21 0 -23 -12 -13 -7 6 -11 16 -7 23 3 6 3 8 -2 4
-9 -8 -65 22 -65 34 0 4 -7 8 -15 8 -9 0 -18 7 -22 16 -5 13 -7 13 -14 2 -7
-11 -9 -10 -9 1 0 9 -6 7 -19 -7 -10 -12 -21 -19 -24 -15 -4 3 -9 -2 -13 -11
-3 -9 -12 -16 -20 -16 -8 0 -14 -5 -14 -11 0 -5 -4 -7 -10 -4 -5 3 -10 1 -10
-4 0 -6 -7 -11 -15 -11 -17 0 -18 2 -9 24 3 9 11 13 18 9 6 -4 6 0 -2 9 -9 11
-9 17 -2 20 6 2 12 13 13 26 0 12 4 22 8 22 17 0 0 50 -26 76 -15 16 -24 22
-20 14 4 -8 -2 -5 -14 8 -12 12 -26 22 -31 22 -6 0 -10 6 -10 14 0 8 -6 16
-12 19 -7 2 25 3 71 2 73 -1 84 1 89 17 2 10 8 15 13 12 9 -5 11 1 12 48 1 15
4 25 8 22 4 -2 10 11 13 29 6 30 8 31 21 14 7 -11 11 -25 8 -33z m-2758 26 c3
-6 -1 -7 -12 -4 -10 3 -7 -2 7 -10 16 -10 19 -15 10 -16 -12 0 -12 -2 -2 -9 7
-4 14 -14 16 -22 1 -8 8 -24 14 -37 7 -12 11 -26 8 -30 -3 -5 31 -7 75 -6 70
2 80 0 74 -14 -5 -13 -1 -12 17 3 22 19 22 18 -1 -8 -14 -15 -26 -25 -29 -23
-2 3 -15 -7 -28 -21 -13 -14 -24 -23 -24 -19 0 4 -7 0 -16 -9 -20 -19 -30 -80
-12 -69 8 5 9 2 5 -9 -3 -9 -2 -19 4 -23 6 -3 8 -12 5 -20 -3 -8 -2 -14 2 -14
4 0 12 -11 18 -23 9 -20 8 -23 -7 -22 -9 1 -24 8 -33 17 -9 9 -25 20 -36 23
-11 3 -20 13 -20 22 0 9 -6 13 -14 10 -8 -3 -17 1 -20 9 -4 11 -10 12 -30 2
-14 -6 -23 -15 -19 -21 3 -6 2 -7 -4 -4 -6 4 -25 -7 -43 -23 -28 -25 -35 -27
-46 -15 -17 17 -18 46 -2 43 8 -2 12 8 12 24 -1 15 2 25 6 23 4 -3 10 4 13 15
3 11 1 20 -4 20 -5 0 -8 3 -7 8 2 4 -5 18 -15 32 -11 15 -17 19 -17 10 0 -13
-1 -13 -9 0 -6 8 -7 18 -4 24 3 5 1 6 -5 2 -6 -3 -22 5 -35 18 -14 14 -28 23
-31 20 -3 -2 -4 -1 -1 3 10 12 36 12 28 0 -3 -7 3 -4 14 6 12 10 24 14 27 9 3
-5 25 -7 48 -5 24 2 48 5 54 5 6 1 11 6 11 12 -1 35 4 57 11 52 4 -2 8 3 9 12
1 14 7 42 12 60 2 6 21 1 26 -8z m-154 -413 c-10 -9 -11 -8 -5 6 3 10 9 15 12
12 3 -3 0 -11 -7 -18z m154 -116 c-3 -5 2 -17 11 -25 14 -15 14 -16 -3 -17
-14 0 -15 -2 -3 -6 22 -9 31 -26 17 -35 -9 -6 -9 -8 1 -8 6 0 12 -7 12 -15 0
-8 5 -15 10 -15 6 0 10 -7 10 -15 0 -12 4 -13 19 -5 14 7 21 6 25 -3 5 -9 7
-9 12 0 4 8 13 9 30 3 13 -5 24 -6 24 -1 0 4 7 8 15 8 8 0 15 -4 15 -9 0 -5 5
-6 10 -3 24 15 7 -14 -17 -31 -15 -9 -36 -25 -47 -35 -10 -10 -24 -15 -30 -12
-6 3 -8 3 -4 -2 4 -4 0 -14 -8 -22 -12 -12 -12 -18 -2 -31 10 -12 10 -14 1 -8
-9 5 -11 2 -7 -8 3 -9 10 -16 16 -16 5 0 6 -9 3 -20 -4 -12 -2 -20 5 -20 7 0
10 -7 6 -15 -3 -8 0 -15 6 -15 6 0 8 -3 5 -7 -4 -3 -1 -13 6 -21 10 -12 6 -12
-20 2 -18 9 -33 22 -33 29 0 8 -4 7 -10 -3 -8 -13 -10 -12 -10 4 0 13 -5 16
-17 12 -10 -4 -15 -4 -11 -1 3 4 -3 16 -13 26 -20 20 -20 20 -65 -1 -24 -12
-44 -26 -44 -31 0 -5 -7 -9 -16 -9 -8 0 -12 -5 -9 -10 4 -6 3 -10 -2 -9 -21 4
-34 -2 -27 -13 4 -7 3 -8 -4 -4 -13 8 -11 41 3 53 4 5 5 2 0 -6 -5 -9 -4 -12
2 -8 6 4 9 18 8 32 -2 14 1 25 6 25 6 0 8 4 5 9 -8 13 4 42 15 35 5 -3 4 6 -3
20 -6 14 -15 26 -20 26 -5 0 -16 7 -25 15 -8 8 -19 13 -24 9 -5 -3 -9 -2 -8 3
3 18 -1 34 -8 30 -5 -3 -17 5 -28 16 -17 17 -17 19 -3 14 10 -3 20 -2 23 3 3
5 15 6 29 0 12 -4 28 -5 34 -1 6 3 26 6 46 5 25 -1 33 2 30 11 -3 7 0 16 5 20
6 3 9 11 6 16 -4 5 -2 9 4 9 6 0 8 6 5 14 -3 7 2 21 11 30 9 9 13 16 9 16 -3
0 -1 7 6 15 14 16 25 21 15 6z m2168 -23 c-2 -5 2 -8 9 -8 9 0 9 -3 -2 -10
-12 -8 -12 -10 5 -11 11 0 14 -3 8 -6 -10 -3 -9 -8 2 -20 8 -8 13 -19 10 -24
-4 -5 -1 -9 5 -9 6 0 9 -4 6 -9 -7 -11 22 -23 35 -15 5 3 9 0 9 -6 0 -6 5 -8
12 -4 7 5 22 8 33 8 11 0 26 -3 33 -8 6 -4 12 -2 12 3 0 8 7 7 19 -1 11 -7 17
-16 15 -20 -3 -5 -9 -6 -14 -3 -4 3 -11 -2 -14 -11 -3 -8 -10 -12 -16 -9 -5 3
-10 -1 -10 -9 0 -9 -4 -16 -10 -16 -16 0 -50 -33 -50 -50 0 -13 -1 -13 -10 0
-6 9 -10 10 -10 3 0 -6 5 -15 11 -18 6 -4 8 -13 5 -20 -3 -8 2 -19 10 -26 8
-7 13 -18 10 -25 -3 -8 3 -18 12 -23 12 -7 13 -10 3 -11 -10 0 -11 -3 -2 -13
6 -8 8 -17 5 -20 -9 -8 -44 15 -44 29 0 7 -9 10 -22 7 -19 -4 -20 -3 -8 6 13
9 13 11 0 11 -8 0 -27 10 -40 23 -32 27 -55 34 -47 12 5 -12 -6 -21 -16 -12
-2 2 -22 -13 -57 -45 -24 -22 -60 -33 -60 -18 0 6 5 8 12 4 8 -5 9 -2 5 9 -4
10 -1 17 5 17 6 0 8 3 5 7 -4 3 -1 13 6 21 10 13 9 14 -3 7 -9 -5 -7 1 5 15
11 13 14 20 8 16 -9 -5 -11 -2 -7 8 3 9 9 14 13 11 4 -2 7 5 6 16 -1 11 -15
31 -31 44 -16 13 -36 30 -46 38 -9 9 -19 13 -22 10 -3 -4 -6 1 -6 11 0 9 -4
14 -10 11 -5 -3 -10 -2 -10 3 0 12 93 21 100 11 3 -5 12 -4 19 0 7 5 23 6 35
3 11 -3 18 -1 13 3 -4 5 1 17 10 28 10 11 12 17 6 13 -9 -5 -11 -2 -7 8 3 9
10 16 14 16 5 0 7 9 5 20 -2 11 0 20 6 20 5 0 9 9 9 20 0 17 2 19 14 8 8 -7
12 -16 9 -20z m604 -32 c2 -11 4 -27 5 -33 1 -7 5 -13 10 -13 5 0 8 -8 6 -17
-2 -14 4 -18 27 -18 17 0 33 -4 37 -10 5 -6 8 -5 8 4 0 11 3 11 15 1 12 -10
15 -10 15 0 0 8 4 9 13 4 6 -5 25 -9 41 -8 25 1 27 -1 13 -11 -9 -7 -15 -15
-12 -18 3 -4 2 -5 -2 -2 -9 7 -54 -23 -71 -47 -7 -10 -18 -15 -24 -12 -6 4 -8
3 -5 -2 3 -6 2 -16 -2 -23 -5 -8 -3 -24 4 -38 8 -14 12 -34 10 -44 -2 -11 0
-17 6 -14 5 4 9 0 10 -7 0 -7 2 -23 5 -35 3 -17 0 -21 -11 -17 -8 4 -15 10
-15 15 0 5 -5 9 -11 9 -7 0 -19 8 -28 18 -16 17 -44 36 -70 49 -7 3 -17 0 -22
-8 -5 -8 -9 -10 -9 -6 0 4 -6 3 -12 -3 -49 -41 -63 -50 -75 -50 -8 0 -11 -4
-8 -10 3 -5 0 -10 -9 -10 -12 0 -15 17 -6 40 1 3 2 9 1 14 -1 5 6 6 15 2 14
-5 15 -4 4 9 -8 10 -9 15 -2 15 6 0 9 7 6 15 -4 8 -2 15 3 15 19 0 6 62 -17
83 -20 19 -22 19 -9 2 11 -15 7 -14 -17 5 -17 14 -30 28 -28 31 2 4 -8 10 -23
14 -23 5 -25 8 -12 15 20 12 89 19 89 10 0 -4 7 -7 15 -7 8 0 15 3 15 7 0 4
10 7 23 6 16 -1 21 4 19 18 -2 10 1 15 6 12 6 -3 13 1 16 10 4 10 2 13 -7 8
-9 -6 -9 -5 0 7 6 8 14 27 17 42 8 45 18 53 35 28 8 -13 16 -33 18 -45z
m-2181 29 c1 -10 6 -21 11 -24 4 -3 10 -17 12 -31 1 -14 7 -28 13 -31 5 -3 10
-10 10 -15 0 -5 4 -8 9 -6 5 1 9 -3 9 -9 0 -8 5 -8 15 1 10 8 15 9 15 1 0 -7
8 -8 24 -1 15 5 27 5 35 -3 8 -8 11 -8 11 2 0 7 5 9 13 4 6 -4 21 -6 32 -4 16
2 14 -2 -10 -20 -16 -13 -31 -27 -33 -31 -2 -5 -8 -8 -14 -8 -6 0 -19 -9 -29
-21 -9 -11 -21 -20 -25 -19 -4 0 -9 -11 -11 -25 -2 -14 1 -25 7 -25 7 0 9 -8
5 -20 -4 -12 -2 -20 5 -20 7 0 10 -8 7 -20 -3 -10 -1 -20 4 -22 5 -2 11 -13
14 -26 3 -20 2 -21 -17 -11 -21 11 -35 21 -63 47 -7 6 -18 12 -23 12 -6 0 -12
6 -15 14 -6 15 -47 18 -47 4 0 -4 -6 -7 -12 -5 -7 1 -12 -4 -10 -11 1 -8 -1
-11 -6 -8 -5 3 -18 -2 -28 -12 -10 -9 -31 -25 -46 -35 -26 -16 -27 -16 -21 0
3 10 11 24 17 32 8 11 8 13 -1 7 -9 -5 -11 -2 -7 8 3 9 11 13 17 9 6 -3 7 -1
3 6 -4 6 -4 17 1 24 5 7 9 19 8 27 0 8 6 21 15 28 8 8 10 11 4 8 -7 -3 -14 1
-18 9 -3 8 -13 15 -21 15 -9 0 -13 5 -10 10 3 6 -1 10 -9 10 -9 0 -16 4 -16 9
0 5 -9 13 -20 16 -11 3 -20 12 -20 20 0 7 -6 15 -12 18 -7 2 1 6 19 9 18 2 30
1 27 -4 -3 -4 6 -4 20 2 16 6 26 6 26 0 0 -6 11 -5 28 1 15 6 29 10 32 9 3 0
6 8 8 20 2 11 8 20 14 20 5 0 8 7 4 15 -3 8 -2 15 3 15 4 0 8 7 9 15 1 8 3 21
4 29 2 20 31 13 34 -9z m-731 -545 c-3 -5 -1 -10 4 -10 6 0 11 4 11 9 0 6 12
6 30 1 19 -5 30 -5 30 1 0 6 4 8 9 4 19 -11 71 -12 71 -1 0 6 5 4 10 -4 6 -9
10 -10 10 -3 0 8 9 9 30 3 17 -5 30 -5 30 0 0 5 7 7 15 4 26 -10 125 -9 125 1
0 6 5 3 10 -5 7 -11 10 -11 10 -2 0 10 5 10 20 2 11 -6 20 -7 20 -3 0 5 17 7
38 6 107 -8 162 -7 162 2 0 6 5 3 10 -5 6 -9 10 -10 10 -3 0 8 9 9 30 3 19 -5
30 -5 30 1 0 6 4 8 9 4 19 -11 71 -12 71 -1 0 6 5 4 10 -4 6 -9 10 -10 10 -3
0 8 9 9 30 3 17 -5 30 -5 30 0 0 5 7 7 15 4 26 -10 125 -9 125 1 0 6 5 3 10
-5 7 -11 10 -11 10 -2 0 10 5 10 20 2 11 -6 20 -7 20 -3 0 5 17 7 38 6 107 -8
162 -7 162 2 0 6 5 3 10 -5 6 -9 10 -10 10 -3 0 8 9 9 30 3 18 -5 30 -5 30 0
0 6 12 5 27 -1 20 -7 29 -7 32 2 2 8 6 7 12 -2 7 -11 9 -11 9 -1 0 10 5 10 20
2 15 -8 20 -8 20 1 0 8 4 8 15 -1 12 -10 15 -10 16 1 0 8 4 5 9 -6 8 -18 9
-18 9 -2 1 15 4 16 23 6 17 -9 23 -9 26 1 3 9 6 9 13 -1 7 -11 9 -11 9 -1 0
10 5 10 20 2 15 -8 20 -8 20 1 0 8 4 8 15 -1 12 -10 15 -10 16 1 0 8 4 5 9 -6
8 -18 9 -18 9 -2 1 10 6 15 12 12 18 -12 59 -13 59 -1 0 6 5 4 10 -4 6 -9 10
-10 10 -3 0 8 9 9 30 3 17 -5 30 -5 30 0 0 5 7 7 15 4 26 -10 125 -9 125 1 0
6 5 3 10 -5 7 -11 10 -11 10 -2 0 10 5 10 20 2 11 -6 20 -7 20 -3 0 5 17 7 38
6 107 -8 162 -7 162 2 0 6 5 3 10 -5 6 -9 10 -10 10 -3 0 8 9 9 30 3 18 -5 30
-5 30 0 0 6 12 5 27 -1 20 -7 29 -7 32 2 2 8 6 7 12 -2 7 -11 9 -11 9 -1 0 10
5 10 20 2 15 -8 20 -8 20 1 0 8 4 8 15 -1 12 -10 15 -10 16 1 0 8 4 5 9 -6 8
-18 9 -18 9 -2 1 15 4 16 23 6 17 -9 23 -9 26 1 3 9 6 9 13 -1 7 -11 9 -11 9
-1 0 10 5 10 20 2 15 -8 20 -8 20 1 0 8 4 8 15 -1 12 -10 15 -10 16 1 0 8 4 5
9 -6 8 -18 9 -18 9 -2 1 10 6 15 12 12 17 -11 119 -11 119 0 0 6 5 3 10 -5 7
-11 10 -11 10 -2 0 10 5 10 20 2 11 -6 20 -7 20 -3 0 5 17 7 38 6 20 -2 66 -4
102 -6 55 -2 65 -5 64 -19 -1 -10 2 -18 7 -18 6 0 6 -8 2 -17 -10 -22 -9 -715
1 -731 4 -7 3 -12 -2 -12 -5 0 -9 -7 -9 -15 0 -8 4 -15 9 -15 5 0 6 -5 2 -11
-10 -16 -12 -89 -2 -95 4 -3 4 -15 0 -27 -9 -25 -8 -64 2 -74 3 -3 1 -12 -5
-20 -9 -10 -8 -13 0 -13 7 0 9 -5 5 -11 -10 -16 -12 -89 -2 -95 4 -3 4 -15 0
-27 -9 -24 -8 -64 1 -74 4 -3 2 -14 -4 -24 -7 -14 -6 -19 3 -19 8 0 9 -3 3 -8
-6 -4 -10 -22 -10 -40 1 -18 -2 -35 -7 -38 -4 -3 -3 -14 2 -25 6 -10 7 -19 3
-19 -7 0 -12 -23 -16 -77 0 -12 -4 -20 -8 -17 -4 2 -10 0 -14 -6 -3 -5 -1 -10
4 -10 6 0 2 -16 -9 -36 -11 -19 -18 -39 -15 -45 4 -5 2 -9 -4 -9 -5 0 -13 -9
-16 -20 -4 -11 -11 -17 -17 -14 -6 4 -9 1 -6 -7 3 -8 -6 -24 -19 -36 -13 -13
-20 -23 -16 -23 4 0 0 -5 -10 -11 -9 -6 -15 -14 -12 -20 4 -5 -3 -9 -15 -9
-12 0 -18 -4 -15 -10 3 -6 1 -10 -5 -10 -6 0 -8 -5 -4 -12 4 -7 3 -8 -4 -4 -7
4 -23 -4 -37 -18 -14 -14 -29 -27 -33 -28 -4 -2 -6 -7 -4 -11 1 -5 -2 -6 -7
-3 -11 7 -63 -19 -54 -27 3 -4 -4 -4 -16 -2 -12 2 -19 0 -16 -4 5 -8 -69 -41
-93 -41 -7 0 -12 -4 -12 -10 0 -5 -7 -7 -15 -4 -8 4 -15 2 -15 -3 0 -10 -10
-13 -59 -16 -16 -1 -27 -6 -23 -11 3 -5 -2 -7 -11 -3 -10 3 -17 3 -17 -2 0 -4
-6 -8 -12 -9 -7 -1 -24 -3 -38 -4 -14 -2 -28 -7 -32 -13 -5 -6 -8 -4 -8 5 0
11 -2 12 -8 3 -8 -13 -67 -25 -112 -24 -20 1 -22 -1 -10 -10 11 -7 7 -9 -18
-5 -20 3 -38 -1 -47 -11 -12 -11 -15 -11 -15 -1 0 9 -3 9 -8 2 -4 -6 -15 -10
-24 -8 -10 1 -20 -1 -23 -6 -3 -4 -14 -6 -25 -3 -11 3 -20 1 -20 -5 0 -9 -55
-27 -72 -23 -5 0 -8 -3 -8 -9 0 -5 -7 -6 -17 -3 -10 4 -14 2 -10 -4 3 -5 0
-10 -8 -10 -8 0 -12 4 -9 9 3 4 -2 5 -10 2 -9 -3 -16 -10 -16 -16 0 -5 -4 -6
-10 -3 -5 3 -10 2 -10 -3 0 -6 -7 -13 -16 -16 -10 -4 -13 -2 -8 7 4 6 -1 4
-12 -5 -10 -9 -26 -18 -34 -20 -8 -2 -23 -11 -32 -21 -9 -10 -19 -18 -22 -18
-20 3 -26 0 -21 -9 3 -5 -1 -10 -9 -10 -9 0 -16 -4 -16 -10 0 -5 -7 -6 -17 -3
-11 4 -14 3 -9 -5 4 -6 -5 -18 -19 -28 -14 -9 -23 -19 -20 -22 3 -3 -5 -10
-18 -17 -12 -6 -21 -17 -20 -23 2 -6 -6 -16 -17 -22 -11 -6 -18 -15 -15 -20 3
-5 -4 -14 -15 -20 -11 -6 -19 -14 -16 -18 2 -4 -4 -8 -14 -8 -10 0 -17 4 -14
7 2 4 -7 20 -21 35 -13 14 -22 30 -19 35 5 8 -10 13 -29 10 -5 -1 -6 3 -2 9 3
5 -1 13 -9 16 -9 3 -16 12 -16 20 0 8 -6 14 -14 14 -8 0 -18 9 -21 20 -4 11
-11 18 -16 15 -5 -4 -12 1 -15 9 -3 9 -10 16 -16 16 -5 0 -16 7 -25 15 -8 8
-19 13 -24 10 -5 -4 -9 1 -9 9 0 9 -3 16 -7 15 -18 -3 -52 14 -57 28 -3 8 -10
12 -15 9 -5 -3 -26 2 -47 11 -52 22 -64 25 -101 27 -26 1 -29 3 -20 15 9 12 9
13 0 7 -7 -4 -22 -2 -34 5 -17 9 -20 8 -13 -3 6 -11 5 -11 -9 1 -9 7 -17 10
-17 6 0 -4 -6 -3 -12 2 -7 6 -23 9 -35 8 -13 -1 -23 2 -23 6 0 5 -6 6 -14 3
-8 -3 -17 0 -21 6 -6 9 -10 9 -16 -1 -6 -10 -9 -10 -9 -2 0 7 -7 10 -15 7 -8
-4 -15 -2 -15 4 0 6 -9 8 -20 5 -12 -3 -20 0 -20 7 0 10 -3 10 -14 1 -10 -8
-16 -9 -21 -1 -3 6 -10 8 -15 5 -5 -3 -11 -1 -15 5 -4 6 -11 8 -16 5 -5 -4
-15 -3 -21 2 -7 4 -22 8 -33 8 -11 0 -24 3 -30 6 -5 4 -20 5 -32 4 -13 -1 -19
3 -16 8 4 6 0 8 -10 4 -10 -4 -17 -1 -18 6 0 9 -2 9 -6 0 -3 -10 -8 -9 -20 3
-8 8 -20 13 -27 11 -6 -2 -17 3 -24 12 -10 12 -12 13 -6 1 7 -13 5 -13 -9 -2
-9 8 -21 11 -27 7 -5 -3 -10 -1 -10 5 0 7 -7 9 -16 6 -8 -3 -12 -2 -9 4 3 6
-1 10 -9 10 -9 0 -16 5 -16 10 0 6 -3 9 -7 9 -25 -4 -43 2 -37 12 4 7 1 10 -6
7 -8 -2 -21 3 -30 11 -9 9 -30 25 -45 36 -38 27 -94 79 -75 69 8 -4 6 2 -5 13
-11 11 -23 18 -28 16 -4 -2 -6 1 -5 9 2 7 -2 12 -9 11 -7 -2 -10 3 -7 11 3 8
0 17 -5 21 -6 3 -9 11 -6 16 4 5 1 9 -4 9 -6 0 -11 7 -11 15 0 8 -5 15 -11 15
-5 0 -8 4 -4 9 3 5 0 13 -6 16 -5 4 -8 13 -5 20 3 8 -1 19 -9 25 -7 6 -12 19
-10 28 1 9 -3 20 -9 24 -8 5 -7 8 2 8 8 0 10 5 6 12 -4 7 -8 25 -9 40 -1 15
-4 31 -8 34 -3 3 -2 17 4 31 5 13 5 22 1 19 -5 -3 -8 13 -8 34 1 22 4 40 9 40
4 0 7 5 7 11 0 5 -4 8 -9 5 -13 -8 -21 18 -10 35 4 8 6 27 3 42 -3 20 -1 26 7
22 8 -6 8 -2 0 13 -6 11 -11 23 -11 27 0 3 5 3 11 -1 8 -5 8 -1 0 14 -14 26
-14 35 0 26 8 -5 8 -1 0 14 -14 27 -14 35 1 26 7 -5 8 -3 3 6 -11 18 -12 61
-3 82 5 9 4 19 -1 22 -4 3 -7 21 -4 41 2 21 -1 35 -7 35 -7 0 -4 7 4 16 9 8
13 21 9 26 -10 18 -11 138 0 131 5 -3 4 4 -2 15 -14 26 -14 35 0 26 8 -5 8 -1
0 14 -14 26 -14 35 0 26 8 -5 8 -1 0 14 -14 27 -14 35 1 26 7 -5 8 -3 3 6 -11
18 -12 61 -3 82 5 9 4 20 -2 23 -6 4 -8 11 -4 16 3 5 0 17 -8 26 -7 10 -8 14
-1 10 8 -5 11 6 9 38 -1 25 1 45 6 45 4 0 8 5 8 11 0 5 -4 8 -9 5 -13 -8 -21
18 -10 35 4 8 6 27 3 42 -3 20 -1 26 7 22 8 -6 8 -2 0 13 -6 11 -11 23 -11 27
0 3 5 3 11 -1 8 -5 8 -1 0 14 -6 11 -11 23 -11 27 0 3 5 3 11 -1 8 -5 8 -1 0
14 -14 27 -14 35 1 26 7 -5 8 -3 3 5 -10 16 -13 101 -4 95 4 -2 10 0 14 6 3 5
8 10 11 10 3 0 2 -4 -1 -10z"/>
<path d="M2627 4083 c-17 -16 -3 -36 41 -56 26 -12 58 -30 71 -39 13 -9 29
-14 37 -11 7 2 19 -5 26 -16 7 -12 16 -21 21 -21 4 0 5 5 1 11 -5 8 -1 8 13 0
22 -11 33 -6 33 16 0 8 -4 11 -10 8 -5 -3 -10 2 -10 12 0 15 -2 16 -10 3 -8
-12 -10 -12 -10 5 0 15 -3 17 -9 7 -7 -11 -9 -11 -14 2 -4 9 -10 16 -14 15
-25 -4 -43 3 -43 18 0 14 -3 14 -22 -3 -13 -10 -17 -12 -11 -4 10 13 6 19 -18
33 -18 10 -27 12 -24 4 4 -6 0 -4 -8 5 -11 14 -16 15 -27 5 -10 -9 -11 -9 -6
1 8 13 4 16 -7 5z"/>
<path d="M2520 3980 c-11 -7 -11 -10 -2 -10 7 0 10 -5 6 -12 -4 -6 -3 -8 4 -4
6 3 14 1 17 -5 4 -5 13 -8 21 -5 8 3 14 2 14 -3 0 -9 120 -72 134 -70 5 0 12
-5 16 -11 4 -7 16 -9 28 -6 20 7 20 8 5 26 -9 10 -20 17 -25 14 -4 -3 -8 0 -8
5 0 6 -7 11 -15 11 -8 0 -15 6 -15 13 0 9 -2 9 -9 -1 -6 -11 -10 -10 -15 4 -3
9 -9 14 -12 11 -4 -3 -15 3 -27 14 -11 10 -29 19 -39 19 -10 0 -18 4 -18 8 0
11 -43 13 -60 2z"/>
<path d="M2455 3890 c3 -5 -1 -10 -9 -10 -9 0 -13 -6 -10 -14 3 -8 12 -12 20
-9 7 3 17 -2 20 -12 4 -9 13 -14 20 -11 8 3 14 2 14 -3 0 -12 50 -32 62 -25 7
4 8 2 4 -4 -4 -7 -1 -12 9 -12 10 0 13 -5 9 -12 -5 -8 -2 -9 9 -5 9 3 23 -1
32 -9 11 -12 15 -12 15 -2 0 10 2 10 8 1 8 -13 26 -5 30 15 1 6 -5 12 -13 12
-9 0 -18 6 -21 14 -3 8 -12 12 -20 9 -8 -3 -14 0 -14 7 0 7 -7 10 -15 6 -9 -3
-15 0 -15 8 0 8 -8 13 -17 12 -9 -2 -25 6 -35 16 -11 11 -26 17 -33 14 -7 -2
-16 2 -19 10 -3 8 -13 14 -21 14 -9 0 -13 -4 -10 -10z"/>
<path d="M4030 3526 c0 -2 8 -10 18 -17 15 -13 16 -12 3 4 -13 16 -21 21 -21
13z"/>
<path d="M1320 2814 c0 -7 -11 -9 -27 -6 -21 4 -25 2 -20 -12 4 -9 2 -16 -2
-16 -11 0 -8 -26 4 -37 4 -4 5 -2 0 6 -6 10 -4 12 5 6 11 -7 10 -10 -1 -19
-15 -11 -17 -41 -6 -71 4 -9 3 -14 -2 -10 -11 6 -9 -14 2 -32 5 -7 4 -13 -2
-13 -5 0 -8 -8 -7 -17 2 -13 13 -18 39 -18 43 -2 44 -2 51 -38 3 -19 1 -25 -7
-20 -7 4 -6 0 2 -10 9 -12 10 -17 2 -17 -8 0 -9 -5 -1 -19 7 -13 7 -22 0 -26
-5 -3 -10 -11 -10 -16 0 -6 4 -8 8 -5 4 2 8 -11 8 -30 0 -19 -5 -34 -11 -34
-5 0 -3 -5 5 -10 10 -6 11 -10 3 -10 -9 0 -10 -7 -3 -26 6 -14 6 -23 1 -20
-11 7 -9 -13 2 -31 5 -8 3 -13 -3 -13 -7 0 -8 -6 0 -19 7 -13 7 -22 0 -26 -5
-3 -10 -11 -10 -16 0 -6 4 -8 8 -5 4 2 8 -11 8 -30 0 -19 -5 -34 -11 -34 -5 0
-3 -5 5 -10 10 -6 11 -10 3 -10 -9 0 -10 -7 -3 -26 6 -14 6 -23 1 -20 -11 7
-9 -13 2 -31 5 -8 3 -13 -3 -13 -7 0 -8 -6 0 -19 7 -13 7 -22 0 -26 -5 -3 -10
-11 -10 -16 0 -6 4 -8 8 -5 4 2 8 -11 8 -30 0 -19 -5 -34 -11 -34 -5 0 -3 -5
5 -10 10 -6 11 -10 3 -10 -9 0 -10 -7 -3 -26 6 -14 6 -23 1 -20 -11 7 -9 -13
2 -31 5 -8 3 -13 -3 -13 -7 0 -8 -6 0 -19 7 -13 7 -22 0 -26 -5 -3 -10 -11
-10 -16 0 -6 4 -8 8 -5 4 2 8 -11 8 -30 0 -19 -5 -34 -11 -34 -5 0 -3 -5 5
-10 11 -7 11 -10 2 -10 -8 0 -10 -5 -6 -12 10 -16 12 -58 2 -52 -4 3 -8 1 -8
-4 0 -6 -22 -9 -50 -8 -31 2 -47 -1 -43 -7 4 -6 0 -8 -8 -5 -10 4 -15 -1 -15
-12 0 -10 4 -16 8 -14 4 3 8 1 8 -5 0 -5 -6 -12 -12 -14 -10 -4 -10 -6 -1 -6
7 -1 10 -8 7 -16 -4 -8 -1 -15 6 -15 6 0 8 -4 5 -10 -10 -16 -14 -50 -7 -50 4
0 8 -9 9 -20 1 -13 -2 -18 -10 -13 -7 4 -7 1 1 -10 8 -9 11 -21 7 -27 -3 -5
-1 -10 5 -10 6 0 8 -5 4 -12 -4 -7 -3 -8 5 -4 6 4 8 12 5 18 -5 7 -2 8 7 2 18
-11 32 -13 94 -18 28 -2 51 -5 53 -6 1 -1 5 -3 10 -4 4 -1 13 -5 21 -10 10 -7
12 -5 6 5 -6 11 -5 11 5 2 7 -6 19 -9 28 -6 11 5 13 3 7 -7 -6 -10 -4 -12 8
-7 10 3 17 3 17 -2 0 -5 11 -7 25 -6 17 2 25 -2 25 -12 0 -11 3 -13 13 -5 8 7
17 7 29 -2 10 -7 16 -15 14 -17 -3 -2 5 -5 17 -6 54 -6 62 -9 70 -28 8 -19 9
-19 27 5 10 13 15 29 12 35 -4 5 -8 33 -10 60 -1 28 -4 61 -6 75 -1 14 -4 39
-4 56 -1 18 -9 34 -18 38 -10 4 -13 2 -9 -7 4 -6 -3 -1 -15 13 -12 14 -19 19
-15 13 4 -9 1 -11 -9 -7 -9 3 -16 10 -16 16 0 5 -4 7 -9 3 -5 -3 -13 0 -17 6
-4 8 -3 9 4 5 7 -4 12 -3 12 3 0 5 -6 12 -12 14 -10 4 -10 6 0 6 6 1 12 6 12
12 0 5 -4 8 -8 5 -4 -2 -8 4 -8 15 0 10 3 19 6 19 3 0 6 8 6 19 0 12 -6 17
-16 14 -8 -2 -5 2 6 9 19 11 20 15 7 27 -12 11 -13 15 -1 22 10 7 10 9 -2 9
-13 0 -13 1 0 10 13 9 13 10 0 10 -12 0 -13 2 -1 9 11 7 11 9 0 14 -10 4 -10
6 -1 6 6 1 12 6 12 12 0 5 -3 8 -7 6 -5 -3 -8 6 -8 19 0 13 5 24 10 24 6 0 3
5 -5 10 -13 9 -13 10 0 10 13 0 13 1 0 10 -13 9 -13 10 0 10 13 0 13 1 0 10
-10 6 -11 10 -2 10 6 0 12 5 12 11 0 5 -4 8 -8 5 -4 -2 -8 4 -8 15 0 10 4 19
8 19 5 0 4 9 -2 20 -12 23 -5 26 15 6 8 -7 11 -16 8 -20 -4 -3 -2 -6 4 -6 5 0
10 -6 11 -12 3 -39 8 -54 21 -64 8 -6 12 -20 8 -33 -3 -11 -1 -19 4 -15 8 5
10 0 13 -38 1 -7 5 -16 10 -20 5 -3 10 -15 11 -25 0 -10 5 -25 10 -33 5 -8 11
-24 12 -34 2 -11 8 -25 14 -32 6 -7 8 -18 4 -24 -3 -5 -1 -10 6 -10 7 0 9 -3
6 -7 -4 -3 0 -17 8 -30 9 -13 13 -28 10 -33 -3 -6 -2 -10 2 -10 5 0 10 -12 11
-27 1 -15 9 -37 17 -50 9 -13 17 -37 18 -52 1 -16 5 -27 8 -25 6 3 12 -10 23
-46 1 -3 5 -11 10 -19 7 -11 6 -12 -5 -6 -12 8 -12 6 -1 -8 8 -9 10 -22 6 -28
-4 -8 -3 -9 4 -5 11 6 17 -12 13 -36 0 -5 4 -8 10 -8 6 0 9 -6 6 -14 -6 -16
27 -35 71 -38 6 -1 12 -5 12 -10 0 -5 11 -6 25 -4 14 3 23 1 20 -5 -4 -5 5 -9
19 -9 14 0 28 -5 31 -11 4 -6 13 -8 20 -5 7 2 18 -1 24 -7 6 -6 11 -8 11 -4 0
4 9 3 19 -3 21 -11 40 3 21 15 -8 5 -8 11 -1 19 6 7 8 16 4 19 -3 4 0 14 8 24
8 9 9 14 2 10 -6 -4 -14 -3 -18 3 -3 5 -2 10 4 10 5 0 8 10 6 22 -3 12 1 28 8
37 9 11 9 13 0 8 -6 -4 -14 -3 -18 3 -3 5 -3 10 2 10 4 0 8 42 7 92 0 51 4 99
9 106 7 9 5 11 -8 6 -14 -6 -16 -4 -10 6 12 20 14 120 2 120 -6 0 -6 4 0 13 6
6 9 20 8 30 -2 9 2 17 8 17 9 0 9 2 1 8 -6 4 -10 27 -9 52 1 25 -3 51 -9 59
-7 9 -7 12 -1 9 7 -4 10 18 11 63 0 38 -4 69 -9 69 -5 0 -4 7 3 15 7 8 9 15 5
15 -4 0 -1 8 6 17 8 10 9 14 2 10 -6 -4 -14 -3 -18 3 -3 5 -2 10 4 10 5 0 8
10 6 22 -3 12 1 28 8 37 9 11 9 13 0 8 -6 -4 -14 -3 -18 3 -3 5 -2 10 4 10 5
0 8 10 6 22 -3 12 1 28 8 37 9 11 9 13 0 8 -6 -4 -14 -3 -18 3 -3 5 -2 10 4
10 5 0 8 10 6 22 -3 12 1 28 8 37 9 11 9 13 0 8 -6 -4 -14 -3 -18 3 -3 5 -3
10 2 10 4 0 8 56 8 125 0 75 -3 125 -9 125 -6 0 -5 5 1 11 6 6 9 18 6 27 -5
11 -3 13 7 7 9 -6 11 -4 5 6 -23 36 -4 82 26 63 5 -3 9 -1 9 5 0 6 6 8 14 5 8
-3 17 -1 21 5 3 6 1 11 -5 11 -7 0 -8 6 -2 18 9 17 7 120 -2 129 -3 3 -1 13 3
22 11 19 -7 47 -29 46 -8 -1 -20 3 -27 7 -6 5 -14 5 -17 -1 -4 -6 -14 -7 -23
-4 -10 4 -14 2 -10 -4 3 -5 0 -10 -8 -10 -8 0 -15 5 -15 10 0 5 -7 7 -15 4 -8
-4 -17 -2 -20 4 -4 5 -12 6 -18 2 -18 -11 -51 -10 -59 2 -5 6 -8 6 -8 -2 0 -7
-7 -10 -17 -6 -12 5 -14 3 -8 -8 5 -8 0 -6 -12 4 -13 11 -23 14 -27 8 -4 -6
-14 -7 -23 -4 -11 4 -14 3 -9 -5 5 -8 2 -10 -8 -6 -9 3 -16 11 -16 18 0 7 -3
8 -8 0 -4 -5 -18 -10 -32 -10 -23 0 -25 -3 -26 -45 0 -25 -3 -50 -7 -56 -4 -7
-3 -14 3 -18 6 -4 7 -12 3 -18 -6 -10 -6 -50 -1 -94 1 -8 7 -9 18 -3 10 5 21
6 24 2 4 -4 15 -7 23 -7 11 0 17 -10 18 -32 1 -18 -2 -33 -7 -33 -5 0 -6 -6
-1 -12 11 -19 12 -37 2 -44 -5 -3 -6 -11 -2 -17 11 -19 11 -47 -1 -47 -6 0 -5
-4 2 -9 15 -9 15 -17 1 -42 -4 -9 -5 -20 -1 -23 10 -11 8 -40 -3 -48 -7 -5 -6
-8 1 -8 11 0 12 -55 1 -66 -3 -4 -2 -15 4 -25 7 -14 6 -19 -3 -19 -8 0 -9 -3
-3 -8 14 -10 17 -32 4 -32 -6 0 -7 -5 -2 -12 14 -24 11 -38 -10 -50 -20 -10
-21 -10 -8 5 11 14 11 17 0 17 -12 0 -12 2 -1 9 11 7 10 9 -3 15 -9 3 -13 10
-10 16 3 5 2 10 -2 10 -5 0 -10 9 -11 20 -4 43 -6 49 -17 54 -7 2 -11 16 -10
29 2 15 -3 28 -12 31 -8 3 -11 11 -8 16 4 6 1 17 -5 25 -6 8 -9 19 -5 25 3 5
1 10 -5 10 -6 0 -9 4 -6 9 4 5 0 12 -6 14 -10 4 -10 7 0 15 11 7 11 10 -3 16
-9 3 -13 10 -10 16 3 5 2 10 -3 10 -6 0 -13 7 -16 16 -3 8 -2 13 3 10 5 -4 7
3 4 14 -3 11 -10 20 -15 20 -5 0 -6 5 -3 10 3 6 1 10 -5 10 -7 0 -10 7 -7 15
4 8 2 17 -4 20 -5 4 -7 11 -4 16 4 5 -1 12 -10 15 -13 5 -14 9 -4 15 11 6 10
9 -3 14 -9 4 -14 13 -11 21 3 8 0 21 -7 29 -7 8 -9 15 -5 15 4 0 2 6 -4 13 -6
8 -8 17 -4 20 3 4 1 7 -5 7 -7 0 -11 3 -10 8 1 4 -5 27 -12 52 -20 61 -49 87
-96 84 -20 -2 -39 -6 -42 -8 -2 -3 -13 -1 -23 5 -11 5 -19 6 -19 1 0 -4 -9 -8
-19 -8 -11 0 -17 4 -15 8 3 4 0 8 -5 8 -6 0 -11 -4 -11 -8 0 -12 -74 -9 -82 3
-5 6 -8 4 -8 -5 0 -13 -1 -13 -10 0 -5 8 -10 10 -10 4z"/>
<path d="M2410 2800 c0 -6 -4 -8 -10 -5 -10 6 -14 -7 -11 -34 2 -8 -2 -10 -10
-5 -8 5 -10 3 -4 -7 12 -19 12 -109 0 -109 -5 0 -3 -5 5 -10 8 -5 11 -10 7
-10 -4 0 -3 -10 4 -21 8 -15 8 -19 0 -15 -6 4 -11 1 -11 -8 0 -18 20 -26 42
-15 10 6 19 5 23 -1 3 -5 12 -7 19 -4 8 3 17 0 22 -7 5 -8 3 -10 -7 -4 -11 7
-12 6 -3 -6 12 -17 12 -88 0 -108 -6 -9 -5 -12 1 -8 13 8 11 -86 -2 -95 -7 -5
-7 -8 0 -8 13 0 13 -109 1 -129 -6 -10 -5 -12 2 -7 14 9 14 9 3 -31 -5 -17 -6
-34 -3 -38 11 -11 12 -45 1 -45 -8 0 -8 -4 -2 -12 12 -16 11 -88 -1 -107 -6
-9 -5 -12 1 -8 13 8 11 -86 -2 -95 -7 -5 -7 -8 0 -8 13 0 13 -109 1 -129 -6
-10 -5 -12 2 -7 14 9 14 9 3 -31 -5 -17 -6 -34 -3 -38 11 -11 12 -45 1 -45 -8
0 -8 -4 -2 -12 12 -16 11 -88 -1 -107 -6 -9 -5 -12 1 -8 13 8 11 -86 -2 -95
-7 -5 -7 -8 0 -8 9 0 13 -85 5 -115 -1 -5 -3 -17 -4 -25 -1 -15 -26 -17 -73
-6 -13 2 -26 0 -30 -7 -11 -17 -10 -57 2 -57 5 0 3 -5 -5 -10 -12 -8 -12 -10
-1 -10 11 0 11 -3 0 -16 -10 -13 -10 -17 2 -25 10 -6 10 -9 2 -9 -7 0 -13 -5
-13 -11 0 -5 4 -8 9 -5 15 10 7 -28 -9 -42 -8 -8 -10 -11 -3 -8 6 4 15 1 20
-6 8 -13 15 -14 76 -20 15 -1 27 -7 27 -12 0 -6 5 -5 11 1 9 9 19 8 42 -3 16
-9 26 -11 23 -5 -4 7 -1 8 8 5 9 -3 16 -10 16 -15 0 -4 7 -6 15 -3 9 4 15 0
15 -7 0 -12 2 -12 9 -1 7 11 9 11 14 -2 4 -9 13 -13 22 -10 8 4 15 1 15 -6 0
-7 8 -10 20 -7 11 3 20 1 20 -4 0 -5 7 -9 15 -9 8 0 15 -4 15 -10 0 -5 7 -7
15 -4 8 4 15 1 15 -5 0 -6 3 -10 8 -9 12 3 52 -13 52 -21 0 -4 6 -8 14 -8 12
0 14 17 13 84 -1 46 2 83 6 83 5 0 5 5 1 11 -4 7 -7 25 -6 40 0 16 -2 28 -6
28 -16 -2 -52 14 -52 23 0 5 -4 7 -9 3 -6 -3 -15 4 -21 15 -8 15 -8 20 2 20
10 0 10 2 1 8 -14 9 -12 84 2 94 6 5 5 8 -2 8 -7 0 -13 7 -13 16 0 9 5 12 13
8 9 -6 9 -4 1 7 -6 8 -10 31 -8 52 2 23 0 36 -6 32 -6 -3 -7 1 -4 9 3 9 11 13
18 9 8 -5 8 -3 0 8 -7 8 -10 43 -9 84 2 44 -2 73 -9 77 -8 5 -8 8 0 8 6 0 10
17 9 40 -1 23 3 40 9 40 6 0 4 4 -4 10 -8 5 -11 12 -7 16 4 4 2 13 -4 20 -7 8
-6 14 2 20 8 5 9 3 4 -6 -5 -9 -4 -11 4 -6 6 4 8 12 5 18 -12 19 -12 88 0 88
7 0 8 3 1 8 -18 12 -12 56 8 60 9 2 15 8 12 13 -3 5 1 6 9 3 9 -3 13 -11 10
-16 -4 -6 0 -7 12 -1 26 13 50 10 46 -6 -1 -7 2 -10 8 -6 6 3 8 10 6 14 -3 4
1 8 9 8 8 0 15 -6 15 -14 0 -7 5 -13 11 -13 5 0 7 -5 4 -10 -4 -6 -1 -17 5
-25 7 -8 9 -15 6 -15 -4 0 -2 -6 5 -12 7 -9 37 -12 83 -12 98 2 105 4 81 14
-11 5 -15 9 -9 9 7 1 10 28 8 76 -1 51 1 73 8 68 7 -4 8 -1 2 8 -14 23 -17 62
-3 53 8 -5 9 -3 3 7 -14 22 -15 101 -2 93 7 -5 8 -3 2 7 -12 20 -12 63 0 71 7
5 6 8 -2 8 -7 0 -10 5 -6 12 4 6 3 8 -2 5 -6 -3 -16 -2 -24 3 -8 5 -21 5 -31
-1 -12 -6 -22 -4 -33 6 -10 10 -16 11 -18 3 -2 -6 -12 -12 -21 -14 -9 -1 -15
2 -11 7 3 5 2 9 -3 9 -4 0 -16 -14 -25 -31 -10 -17 -12 -27 -5 -23 6 4 4 -2
-6 -13 -9 -11 -14 -23 -10 -26 3 -4 1 -7 -6 -7 -7 0 -10 -4 -7 -8 2 -4 -4 -8
-14 -8 -10 0 -16 4 -14 8 3 4 -7 3 -21 -2 -32 -12 -38 -12 -31 -2 2 4 -5 8
-17 9 -12 0 -16 -1 -9 -4 6 -3 10 -9 6 -14 -3 -5 -13 -2 -22 8 -19 18 -23 84
-7 95 6 5 5 8 -2 8 -7 0 -13 7 -13 16 0 9 5 12 13 8 9 -6 9 -4 1 7 -6 8 -10
31 -8 52 2 23 0 36 -6 32 -6 -3 -7 1 -4 9 3 9 11 13 18 9 8 -5 8 -3 0 8 -7 8
-10 43 -9 82 1 37 -1 70 -6 73 -4 2 -6 11 -3 19 4 8 10 12 15 9 6 -3 16 -1 24
6 9 7 15 8 19 1 5 -7 15 -7 31 -1 16 6 25 6 25 0 0 -6 9 -6 23 -1 13 5 30 5
37 1 8 -5 18 -6 24 -3 5 3 6 1 2 -5 -3 -6 -2 -13 4 -17 6 -4 8 -11 5 -16 -4
-5 -1 -9 5 -9 6 0 8 -4 5 -10 -3 -5 -1 -10 5 -10 6 0 8 -4 5 -10 -3 -5 -1 -10
6 -10 7 0 9 -3 6 -6 -3 -4 -2 -15 4 -26 8 -14 19 -18 48 -17 20 2 42 0 48 -4
6 -4 13 -3 15 3 2 7 14 7 36 1 21 -6 32 -6 32 0 0 6 5 7 12 3 7 -4 8 -3 4 5
-4 6 -3 18 4 26 7 9 8 15 0 20 -7 4 -7 12 0 26 8 13 7 19 0 19 -8 0 -8 6 0 20
8 14 8 20 0 20 -8 0 -8 6 0 20 8 14 8 20 0 20 -7 0 -8 6 0 19 12 23 13 34 3
28 -5 -3 -8 6 -8 19 0 13 2 24 5 24 3 0 4 21 3 47 -3 43 -17 68 -34 57 -4 -2
-10 0 -14 5 -8 14 -36 1 -28 -13 3 -6 -3 -3 -14 7 -13 11 -23 14 -27 8 -4 -6
-14 -7 -23 -4 -12 5 -14 3 -8 -8 7 -11 6 -12 -6 -3 -8 6 -23 10 -34 8 -10 -1
-26 3 -34 9 -9 7 -12 7 -8 1 4 -7 -6 -11 -28 -11 -22 0 -32 4 -28 11 4 6 -1 5
-10 -3 -9 -7 -17 -10 -17 -5 0 5 -5 2 -10 -6 -6 -9 -10 -10 -10 -3 0 8 -13 11
-40 8 -30 -3 -39 -1 -33 8 4 7 0 7 -10 -2 -9 -7 -17 -10 -17 -6 0 4 -8 1 -17
-6 -11 -10 -14 -10 -9 -1 4 7 1 12 -8 12 -9 0 -16 -6 -16 -12 0 -10 -2 -10 -8
-1 -4 6 -23 10 -45 8 -27 -3 -36 -1 -30 8 4 7 0 7 -10 -2 -9 -7 -17 -10 -17
-6 0 4 -8 1 -17 -6 -13 -11 -15 -11 -9 -1 6 10 3 13 -10 11 -11 -2 -24 0 -31
4 -6 4 -14 3 -18 -2 -3 -6 -13 -7 -22 -4 -12 5 -14 3 -8 -7 6 -10 4 -11 -6 -4
-21 13 -51 16 -44 4 9 -15 -2 -12 -19 6 -9 9 -16 11 -16 4z m-20 -1600 c0 -5
-5 -10 -11 -10 -5 0 -7 5 -4 10 3 6 8 10 11 10 2 0 4 -4 4 -10z"/>
<path d="M3346 2801 c-4 -5 -14 -7 -23 -4 -12 5 -14 3 -8 -8 7 -12 6 -12 -7
-1 -14 11 -16 10 -14 -12 2 -15 -2 -26 -8 -26 -6 0 -4 -5 4 -10 12 -7 12 -10
1 -10 -8 0 -11 -6 -6 -17 4 -10 10 -24 13 -32 3 -9 1 -12 -6 -7 -11 7 -9 -24
3 -44 3 -6 0 -10 -7 -10 -10 0 -10 -2 1 -9 7 -5 11 -14 7 -20 -5 -7 -1 -8 10
-4 12 5 15 3 9 -6 -5 -10 -2 -11 12 -7 13 4 25 0 34 -10 16 -19 22 -77 7 -68
-6 4 -4 -4 3 -17 12 -23 11 -23 -7 -9 -18 14 -18 14 -5 -2 13 -18 23 -101 11
-93 -4 2 -5 -6 -4 -18 1 -12 3 -22 4 -22 0 0 2 -19 4 -42 1 -23 -1 -40 -4 -38
-9 5 -6 -53 3 -61 11 -12 8 -26 -4 -18 -7 4 -6 -2 2 -17 12 -23 11 -23 -7 -9
-18 14 -18 14 -5 -2 13 -18 23 -101 11 -93 -4 2 -5 -6 -4 -18 1 -12 3 -22 4
-22 0 0 2 -19 4 -42 1 -23 -1 -40 -4 -38 -4 2 -5 -6 -4 -18 1 -12 3 -22 4 -22
0 0 2 -19 4 -42 1 -23 -1 -40 -4 -38 -9 5 -6 -27 3 -42 4 -6 3 -14 -3 -18 -6
-4 -7 -11 -4 -17 9 -14 12 -88 4 -83 -6 4 -5 -36 0 -42 7 -9 4 -29 -5 -35 -6
-5 -6 -8 3 -8 6 0 12 -7 12 -15 0 -8 -6 -15 -12 -15 -10 0 -10 -2 0 -9 8 -4
14 -12 14 -16 0 -4 -6 -12 -14 -16 -10 -7 -10 -9 0 -9 6 0 12 -7 12 -15 0 -8
-6 -15 -12 -15 -8 0 -9 -3 -3 -8 13 -10 15 -83 2 -75 -6 3 -7 1 -3 -5 13 -22
15 -52 3 -49 -7 1 -11 -3 -10 -9 1 -6 -4 -11 -12 -11 -8 0 -12 5 -9 11 3 6 -1
3 -9 -6 -8 -10 -18 -18 -23 -18 -5 0 -22 -12 -39 -26 -20 -17 -26 -27 -17 -31
10 -4 10 -8 1 -19 -9 -11 -9 -18 1 -29 7 -8 8 -15 3 -15 -5 0 -9 -9 -9 -19 0
-11 4 -17 8 -15 4 3 8 1 8 -5 0 -5 -6 -12 -12 -14 -10 -4 -9 -6 1 -6 11 -1 11
-4 0 -18 -11 -13 -11 -17 -1 -20 6 -3 12 -9 12 -14 0 -6 -5 -7 -11 -3 -8 5 -8
1 0 -14 13 -25 14 -35 3 -28 -5 3 -9 -1 -9 -9 0 -12 6 -12 36 1 19 8 39 20 43
27 4 7 8 8 8 4 0 -5 14 2 32 14 18 14 28 17 24 8 -4 -7 0 -5 8 5 9 11 16 16
16 12 0 -4 7 0 16 8 8 9 20 14 25 11 5 -4 9 1 9 9 0 9 6 13 14 10 7 -3 21 2
30 11 9 9 25 17 35 18 11 0 17 5 15 9 -3 4 4 8 15 8 12 0 21 5 21 10 0 6 3 9
8 9 19 -3 33 2 28 10 -4 5 5 8 19 6 15 -1 29 4 35 14 5 9 10 12 10 6 0 -5 5
-3 10 5 6 9 10 11 10 3 0 -7 7 -10 15 -7 8 4 13 10 10 14 -3 4 1 8 8 7 38 -1
58 4 51 14 -4 7 0 9 14 5 11 -4 23 -2 27 4 3 6 12 7 18 3 21 -13 39 -12 33 2
-3 9 5 12 30 11 20 -1 40 4 46 11 6 7 16 13 22 13 6 0 4 -5 -4 -11 -11 -8 -9
-9 10 -3 14 4 32 8 40 9 9 0 20 3 25 7 6 3 20 4 32 3 13 -1 19 3 16 9 -11 17
-11 50 -1 70 6 10 6 16 1 13 -12 -7 -10 396 2 405 6 4 0 8 -12 8 -12 0 -23 6
-26 13 -3 9 -7 9 -20 -2 -10 -7 -17 -10 -17 -5 0 5 -33 9 -74 9 -41 0 -72 -3
-69 -7 2 -5 0 -8 -6 -8 -5 0 -8 -11 -6 -25 1 -14 -3 -25 -9 -25 -7 0 -7 -3 -1
-8 13 -9 15 -123 2 -115 -5 3 -4 -4 3 -16 8 -16 8 -26 1 -35 -6 -7 -8 -15 -5
-18 2 -3 7 -18 10 -33 3 -20 1 -25 -8 -19 -8 5 -7 1 2 -11 9 -11 10 -16 3 -11
-8 4 -13 2 -13 -4 0 -6 -4 -8 -10 -5 -5 3 -10 1 -10 -5 0 -8 -6 -7 -21 1 -15
8 -19 8 -15 0 4 -6 4 -12 -1 -12 -4 -1 -23 -3 -42 -5 -19 -2 -38 -9 -42 -15
-4 -8 -9 -5 -12 7 -4 15 -5 16 -6 2 -1 -11 -9 -16 -22 -15 -25 2 -45 32 -27
43 7 5 8 3 3 -6 -5 -9 -4 -11 4 -6 9 6 9 11 0 22 -6 8 -9 17 -6 21 4 3 2 14
-3 24 -7 12 -6 20 2 25 7 5 8 3 3 -6 -5 -9 -4 -11 4 -6 7 5 9 12 3 19 -14 19
-14 78 0 95 8 10 8 13 2 9 -7 -4 -15 0 -18 9 -3 8 -2 12 3 9 6 -3 8 20 6 57
-3 39 0 67 8 77 8 10 8 12 1 8 -7 -4 -15 0 -18 9 -3 8 -2 13 3 10 10 -7 9 74
-2 91 -4 6 -2 15 4 19 8 5 9 3 4 -6 -5 -9 -4 -11 4 -6 9 6 9 11 0 22 -6 8 -9
17 -6 21 4 3 2 14 -3 24 -7 12 -6 20 2 25 7 5 8 3 3 -6 -5 -9 -4 -11 4 -6 8 5
9 12 2 20 -6 7 -8 25 -5 40 2 15 1 25 -4 22 -5 -3 -9 1 -9 9 0 8 3 12 7 10 3
-2 6 20 7 50 0 30 -3 52 -7 50 -4 -2 -7 2 -7 10 0 8 3 12 7 10 3 -2 6 20 7 50
0 30 -3 52 -7 50 -4 -2 -7 2 -7 10 0 8 3 12 6 10 4 -2 7 19 8 46 1 27 -3 47
-8 43 -5 -3 -6 2 -3 10 3 9 11 13 18 9 8 -5 8 -3 0 8 -17 23 -14 56 8 76 15
12 19 13 14 3 -4 -9 -2 -8 7 3 8 9 19 17 25 17 6 0 14 5 18 12 5 7 3 8 -7 3
-8 -5 -5 2 6 15 11 13 15 20 9 17 -7 -4 -15 0 -18 9 -3 8 -2 12 4 9 13 -8 9
46 -4 64 -8 11 -8 13 0 8 8 -5 11 5 10 31 0 23 -6 39 -13 39 -7 0 -9 -5 -6
-11 4 -6 -1 -5 -11 3 -15 13 -19 13 -27 0 -5 -9 -9 -10 -9 -2 0 8 -13 11 -40
8 -30 -3 -39 -1 -33 8 4 7 0 7 -10 -2 -9 -7 -17 -10 -17 -6 0 4 -8 1 -17 -6
-14 -11 -15 -12 -9 -1 7 11 0 13 -30 9 -23 -3 -45 -1 -53 6 -9 7 -12 8 -8 1 4
-7 -6 -11 -28 -11 -22 0 -32 4 -28 11 4 6 0 5 -8 -1 -11 -9 -19 -9 -26 -2 -7
7 -13 8 -17 0z"/>
<path d="M1335 2401 c-3 -5 -2 -12 3 -15 5 -3 9 1 9 9 0 17 -3 19 -12 6z"/>
<path d="M1335 2161 c-3 -5 -2 -12 3 -15 5 -3 9 1 9 9 0 17 -3 19 -12 6z"/>
<path d="M1335 1921 c-3 -5 -2 -12 3 -15 5 -3 9 1 9 9 0 17 -3 19 -12 6z"/>
<path d="M1335 1681 c-3 -5 -2 -12 3 -15 5 -3 9 1 9 9 0 17 -3 19 -12 6z"/>
</g>
</svg>
